<?xml version="1.0" encoding="UTF-8" standalone="no"?>
<svg width="101px" height="90px" viewBox="0 0 101 90" version="1.1" xmlns="http://www.w3.org/2000/svg" xmlns:xlink="http://www.w3.org/1999/xlink" xmlns:sketch="http://www.bohemiancoding.com/sketch/ns">
    <!-- Generator: Sketch 3.3.2 (12043) - http://www.bohemiancoding.com/sketch -->
    <title>GBK</title>
    <desc>Created with Sketch.</desc>
    <defs></defs>
    <g id="ACCOUNT" stroke="none" stroke-width="1" fill="none" fill-rule="evenodd" sketch:type="MSPage">
        <g id="Forogt-passcode" sketch:type="MSArtboardGroup" transform="translate(-669.000000, -26.000000)" fill="#191918">
            <g id="Header" sketch:type="MSLayerGroup">
                <g id="Fill-1-+-Fill-3-+-JOIN-THE-GANG---/----2" transform="translate(250.000000, 26.000000)" sketch:type="MSShapeGroup">
                    <path d="M519.826087,85.2394366 L519.826087,89.0576928 L420,89.0576928 L420,85.2394366 L519.826087,85.2394366 Z M519.798758,0.221327848 L519.798758,4.05644715 L419.971118,4.05644715 L419.971118,0.221327848 L519.798758,0.221327848 Z M419.977019,55.8600682 L419.977019,31.4500226 C420.058385,31.3850682 420.11646,31.2982542 420.174534,31.2982542 C422.887578,31.291384 425.617081,31.0993314 428.309317,31.3363524 C432.610248,31.7151489 435.214286,35.7488787 434.468944,39.9028366 C434.241925,41.1675735 433.579503,42.352991 433.118944,43.5683875 C433.531366,44.6139033 434.137267,45.7206261 434.404969,46.9051068 C435.414286,51.3685349 432.436335,55.497198 427.890062,55.8263419 C425.308696,56.0130857 422.703106,55.8600682 419.977019,55.8600682 Z M424.86646,50.9831805 C426.000311,50.9097945 427.014286,50.942584 427.986025,50.7549033 C429.084472,50.5425524 429.71118,49.5710471 429.703106,48.4237278 C429.695342,47.334805 429.068634,46.3008436 428.059006,46.1490752 C427.018944,45.9929349 425.937888,46.1144121 424.86646,46.1144121 L424.86646,50.9831805 L424.86646,50.9831805 Z M424.897516,41.1044928 C425.981677,41.037977 427.025155,41.0754507 428.025466,40.8852717 C429.135404,40.67417 429.77236,39.6080436 429.700621,38.4204401 C429.634161,37.3205875 428.854658,36.3468963 427.793168,36.2410331 C426.847826,36.1467243 425.885714,36.2213594 424.821429,36.2213594 C424.821429,37.554798 424.817391,38.7898682 424.824224,40.0249384 C424.825776,40.325977 424.863665,40.6267033 424.897516,41.1044928 Z M486.110559,27.5293384 L482.168944,27.5293384 C481.574224,24.5726647 480.987267,21.6550261 480.400311,18.7370752 C480.351553,18.7417594 480.303106,18.7464436 480.254348,18.7508156 L480.254348,27.4803103 L476.357143,27.4803103 L476.357143,7.85565416 L482.183851,7.85565416 C482.808696,10.9728401 483.430435,14.0747243 484.052484,17.1766085 C484.108696,17.1822296 484.164907,17.1878507 484.221118,17.1934717 C484.840994,14.114384 485.46118,11.0356085 486.096273,7.88063662 L491.943478,7.88063662 L491.943478,27.4956121 L488.165217,27.4956121 L488.165217,18.8039033 C488.072671,18.7914121 487.980124,18.7786085 487.887267,18.7661173 C487.297205,21.6765735 486.707143,24.5873419 486.110559,27.5293384 Z M515.658385,45.386798 C517.049068,48.8987068 518.404658,52.3222401 519.795342,55.8341489 L514.923292,55.8341489 C513.690062,52.7428822 512.454969,49.6475559 511.219876,46.5519173 C511.16646,46.5587875 511.113354,46.56597 511.059938,46.5728401 L511.059938,55.7835594 L506.18882,55.7835594 L506.18882,31.2426682 C508.058075,31.2426682 509.907143,31.2214331 511.75559,31.2520366 C512.603727,31.2660893 513.475776,31.2748331 514.293168,31.4703208 C517.217391,32.1698296 519.000621,34.0697454 519.611801,37.0070577 C520.269255,40.1670261 519.324224,42.7708226 516.706832,44.7057138 C516.397826,44.933991 516.062112,45.1260436 515.658385,45.386798 Z M511.050311,41.0051875 C512.481056,41.1113629 513.768634,41.1888085 514.578882,39.858805 C515.114286,38.9800471 515.05528,37.9098612 514.426708,37.1185419 C513.513354,35.9687243 512.297826,36.1142471 511.050311,36.2947454 L511.050311,41.0051875 Z M465.350311,45.3864857 C466.741615,48.8983945 468.098447,52.3241138 469.48913,55.8344612 L464.614907,55.8344612 C463.386335,52.7541243 462.151242,49.6569243 460.916149,46.5594121 C460.861801,46.5662822 460.807453,46.5728401 460.753106,46.579398 L460.753106,55.7807489 L455.879814,55.7807489 L455.879814,31.2426682 C457.67205,31.2426682 459.443478,31.2198717 461.213975,31.2517243 C462.139752,31.2685875 463.092857,31.2598436 463.983851,31.4728191 C467.171739,32.2350963 468.959627,34.3904577 469.417081,37.5760331 C469.837578,40.5061629 468.845963,42.9453875 466.401863,44.7044647 C466.089752,44.9293068 465.756211,45.1244822 465.350311,45.3864857 Z M460.739752,40.9926963 C462.14441,41.1272893 463.417081,41.1919314 464.25,39.8922191 C464.804037,39.0278261 464.753416,37.9723173 464.140062,37.1519559 C463.247826,35.9581068 462.015217,36.1467243 460.739752,36.265391 L460.739752,40.9926963 Z M506.189752,81.5804436 L506.189752,59.5125033 L510.556211,59.5125033 C512.081056,62.9682015 513.639441,66.4994717 515.197826,70.0310542 C515.263354,70.0138787 515.328882,69.996391 515.39472,69.9792156 L515.39472,59.5396717 L519.762112,59.5396717 L519.762112,81.5801314 L515.386025,81.5801314 C513.86087,78.1169384 512.314286,74.6047173 510.767702,71.0924963 C510.704969,71.1012401 510.642236,71.109984 510.579193,71.1190401 L510.579193,81.5804436 L506.189752,81.5804436 Z M486.943168,38.5228682 L482.156832,38.5228682 C482.079503,38.322384 481.982298,38.0803664 481.892857,37.8352261 C481.450311,36.6226401 480.43354,36.0233735 479.142547,36.2154261 C478.029503,36.3812471 477.207143,37.2706226 477.195963,38.4863314 C477.164907,41.8414752 477.163665,45.1972436 477.195342,48.5520752 C477.208075,49.8855138 478.173292,50.8317243 479.458075,50.9141664 C480.673602,50.9922366 481.761491,50.1987314 481.937888,48.928998 C482.063975,48.0224471 481.962422,47.0843559 481.962422,46.0606998 L479.663975,46.0606998 L479.663975,41.15477 L486.852795,41.15477 C486.886335,41.425205 486.945652,41.6868963 486.946584,41.9488998 C486.953416,44.0948928 487.000621,46.2421349 486.936957,48.3862542 C486.84472,51.4803314 485.540683,53.8948857 482.657453,55.194598 C477.77205,57.3971138 472.332609,53.9982507 472.291615,48.6847945 C472.265217,45.2515805 472.245342,41.8174296 472.298137,38.3848401 C472.357764,34.5100612 475.219876,31.4831243 478.930435,31.2651524 C483.04441,31.0234471 486.185714,33.4814085 486.8,37.4248893 C486.852174,37.7602787 486.888199,38.0981664 486.943168,38.5228682 Z M437.453106,31.3026261 L442.285714,31.3026261 L442.285714,32.6160787 C442.285714,37.687205 442.284472,42.7580191 442.288509,47.8288331 C442.28882,48.2173103 442.27795,48.6167173 442.359627,48.9920787 C442.623913,50.2065384 443.738509,51.0190928 444.928261,50.9085454 C446.163043,50.7936261 447.093478,49.8689629 447.159006,48.6154682 C447.20559,47.720784 447.17205,46.8217278 447.17205,45.9245454 C447.172671,41.5167033 447.17236,37.1088612 447.17236,32.7010191 L447.17236,31.3351033 L451.988509,31.3351033 C452.012422,31.5942963 452.057453,31.8559875 452.057764,32.1176787 C452.061491,37.6178787 452.070497,43.1177664 452.056211,48.6176542 C452.047826,51.9490647 449.768012,55.242377 445.707143,55.801984 C442.655901,56.2223138 439.272671,54.7292998 437.912112,51.2058366 C437.609938,50.4232612 437.423913,49.5423173 437.417702,48.7050928 C437.374845,43.0884121 437.395031,37.4711068 437.397205,31.8541138 C437.397205,31.7039068 437.426708,31.5536998 437.453106,31.3026261 Z M495.252795,41.0898156 L502.489752,41.0898156 L502.489752,45.9810682 L495.250311,45.9810682 L495.250311,50.8941805 L502.482609,50.8941805 L502.482609,55.819784 L490.368944,55.819784 L490.368944,31.3213629 L502.487578,31.3213629 L502.487578,36.1432893 L495.252795,36.1432893 L495.252795,41.0898156 Z M488.14472,81.6179173 L483.831366,81.6179173 L483.831366,72.8222191 L478.800932,72.8222191 L478.800932,81.5954331 L474.441615,81.5954331 L474.441615,59.4438015 L476.533851,59.4438015 L478.734161,59.4438015 L478.734161,68.2323173 L483.818944,68.2323173 L483.818944,59.5215594 L488.14472,59.5215594 L488.14472,81.6179173 Z M428.742547,59.5071945 L433.122981,59.5071945 C431.640062,63.265805 430.206211,66.9010647 428.760248,70.565991 C430.197205,74.1987524 431.638509,77.8424436 433.119255,81.5854401 L428.729814,81.5854401 C427.354348,78.1384857 425.951863,74.6240787 424.549068,71.1093594 C424.493478,71.1209138 424.437888,71.1324682 424.382298,71.1440226 L424.382298,81.5604577 L420.003416,81.5604577 L420.003416,59.5365489 L424.299379,59.5365489 L424.299379,69.9348717 C424.381988,69.9579805 424.464907,69.9814015 424.547516,70.0045103 C425.943168,66.5122752 427.33882,63.0200401 428.742547,59.5071945 Z M491.76087,59.5062577 L502.458385,59.5062577 L502.458385,63.9041068 L496.151553,63.9041068 L496.151553,68.3069524 L502.488509,68.3069524 L502.488509,72.7082366 L496.177019,72.7082366 L496.177019,77.1922752 L502.487888,77.1922752 L502.487888,81.5610822 L491.76087,81.5610822 L491.76087,59.5062577 Z M462.65528,7.89906118 C464.813665,7.89906118 466.924845,7.69201908 468.977329,7.95339802 C471.339752,8.25443662 472.831056,9.87735943 473.429814,12.1832401 C474.074845,14.6674331 473.176708,17.1672401 471.276398,18.5378401 C470.99441,18.7414471 470.695031,18.9206963 470.293168,19.1833243 C471.363665,21.8989173 472.437888,24.6245033 473.562733,27.4778121 L469.646894,27.4778121 C468.690683,25.0916752 467.718012,22.6649419 466.745342,20.2382085 C466.665528,20.2572577 466.585404,20.2763068 466.50559,20.2950436 L466.50559,27.5224682 L462.65528,27.5224682 L462.65528,7.89906118 Z M466.61118,11.8490998 L466.61118,15.5958436 C467.707764,15.6979594 468.72764,15.8097559 469.377329,14.7714226 C469.801242,14.0937735 469.802795,13.3674085 469.384472,12.6863243 C468.741304,11.6389349 467.718634,11.7551033 466.61118,11.8490998 Z M471.548137,66.1075594 L467.327329,66.1075594 C467.238509,65.8655419 467.155901,65.6150928 467.055901,65.3721384 C466.64441,64.371591 465.750621,63.8107349 464.781056,63.9378331 C463.710248,64.0783594 462.948447,64.8268963 462.82795,65.9498577 C462.761801,66.5678612 462.803416,67.1977314 462.803106,67.8219805 C462.801553,70.1253629 462.788199,72.4287454 462.808696,74.7318156 C462.820807,76.1158436 463.513665,76.9858577 464.680745,77.1769735 C465.815528,77.3624682 466.730435,76.7197945 467.190683,75.4113384 C467.228882,75.302977 467.255901,75.1905559 467.303727,75.0269208 L471.583851,75.0269208 C471.628882,76.7660121 471.07236,78.2505945 469.940994,79.4787945 C468.047516,81.5336015 465.659006,82.1462963 463.040683,81.3521664 C460.546894,80.5958226 458.98882,78.8433033 458.559317,76.1942261 C458.47236,75.6580401 458.4,75.112798 458.396894,74.570991 C458.381056,71.7994998 458.357453,69.027384 458.400621,66.256205 C458.438509,63.8007419 459.380435,61.7880928 461.517391,60.4571524 C465.396273,58.0407243 471.102795,60.1198893 471.611801,65.6066612 C471.625466,65.752184 471.575776,65.9033278 471.548137,66.1075594 Z M427.806522,19.7266928 C427.148447,19.6807875 426.579814,19.6411278 425.919876,19.5949103 L425.919876,15.726377 L431.771429,15.726377 C431.771429,16.5386191 431.791304,17.3058928 431.767391,18.0712928 C431.716149,19.7038963 431.787578,21.3577349 431.545342,22.9625454 C431.131056,25.7087419 428.775776,27.551198 425.936957,27.5771173 C423.01087,27.6039735 420.697826,25.8064857 420.129503,23.0346822 C420.013354,22.4669559 419.93882,21.8804928 419.934161,21.3018366 C419.913665,18.7661173 419.891615,16.2294612 419.934161,13.6943664 C420.001242,9.70404364 423.514596,7.0087489 427.360559,7.95901908 C429.73323,8.54516995 431.751242,10.7539314 431.695342,13.6106752 C431.593789,13.6450261 431.486335,13.7118542 431.378571,13.7124787 C430.25528,13.7202857 429.131988,13.7171629 427.94441,13.7171629 C427.842857,13.4754577 427.747826,13.2328156 427.640373,12.9961068 C427.220807,12.0723805 426.475466,11.6698507 425.485093,11.825991 C424.596273,11.9665173 424.007764,12.6095033 423.887267,13.5775735 C423.872981,13.6931173 423.877019,13.8114717 423.877019,13.9282647 C423.876708,16.4642963 423.871739,19.0000156 423.880745,21.5360471 C423.88323,22.2764647 424.127019,22.915391 424.796584,23.3144857 C426.045342,24.0589629 427.602174,23.332598 427.791304,21.872998 C427.879814,21.1916015 427.806522,20.4892822 427.806522,19.7266928 Z M433.885714,17.6437805 C433.885714,16.2394542 433.854969,14.834191 433.892236,13.4308015 C433.965528,10.6643068 436.035404,8.27598399 438.658696,7.88001206 C441.78354,7.4084682 444.463354,8.96112785 445.349689,11.8128752 C445.554969,12.4724121 445.661801,13.1875349 445.67205,13.8792366 C445.709317,16.4143314 445.72236,18.9509875 445.678261,21.48577 C445.624845,24.5539278 443.930435,26.7689349 441.220497,27.428784 C437.419255,28.3540717 433.943168,25.6637735 433.885404,21.7396542 C433.865528,20.3746752 433.882298,19.0090717 433.882298,17.6437805 L433.885714,17.6437805 Z M441.751553,17.6834401 L441.741615,17.6834401 C441.741615,16.3581208 441.797516,15.0293664 441.725776,13.7077945 C441.657143,12.4458682 440.847516,11.756977 439.676087,11.8031945 C438.564286,11.8469138 437.852795,12.5717173 437.841304,13.7836787 C437.81646,16.3955945 437.808696,19.0084471 437.843789,21.6203629 C437.863975,23.1049454 439.156522,23.9752717 440.488199,23.4665664 C441.420186,23.1102542 441.732298,22.3461033 441.746894,21.4264366 C441.766149,20.1791875 441.751553,18.9313138 441.751553,17.6834401 Z M455.813665,7.85815241 L459.699689,7.85815241 C459.722981,8.21602609 459.759627,8.51862609 459.759627,8.82091381 C459.762733,13.1150857 459.784783,17.40957 459.753416,21.7034296 C459.724224,25.745591 456.110248,28.4702401 452.231988,27.3610191 C449.892857,26.6918015 448.494099,25.1013559 448.086957,22.6677524 C448.042236,22.3985664 447.98913,22.1259454 447.988509,21.8548857 C447.981677,17.3268156 447.981677,12.7987454 447.985404,8.27067522 C447.985714,8.16044013 448.046273,8.05020504 448.099068,7.87095592 L451.901242,7.87095592 L451.901242,9.1641103 C451.901242,13.0288963 451.899689,16.8936822 451.903416,20.7584682 C451.903727,21.1478822 451.890683,21.5444787 451.955901,21.9251489 C452.14472,23.0265629 452.917702,23.6358226 454,23.5824226 C455.062422,23.5299594 455.77795,22.8267033 455.799379,21.687191 C455.836025,19.7360612 455.813043,17.7836822 455.813665,15.8316156 C455.814286,13.2215735 455.813665,10.6112191 455.813665,7.85815241 Z M504.903416,15.6333173 L504.903416,19.6005314 L499.158696,19.6005314 L499.158696,23.5402647 L504.847516,23.5402647 L504.847516,27.5127875 L495.183851,27.5127875 L495.183851,7.89156644 L504.856832,7.89156644 L504.856832,11.7522928 L499.162733,11.7522928 L499.162733,15.6333173 L504.903416,15.6333173 Z M456.88913,63.8897419 L452.09441,63.8897419 L452.09441,81.5629559 L447.624534,81.5629559 L447.624534,63.9290893 L442.7,63.9290893 L442.7,59.5009489 L456.88913,59.5009489 L456.88913,63.8897419 Z M511.47795,11.788205 L507.075155,11.788205 L507.075155,7.89593837 L519.747205,7.89593837 L519.747205,11.7607243 L515.40559,11.7607243 L515.40559,27.5162226 L511.47795,27.5162226 L511.47795,11.788205 Z M436.299068,59.4578542 L440.58882,59.4578542 L440.58882,81.5613945 L436.299068,81.5613945 L436.299068,59.4578542 Z" id="GBK"></path>
                </g>
            </g>
        </g>
    </g>
</svg>